<?xml version="1.0" encoding="UTF-8"?>
<svg id="Layer_1" data-name="Layer 1" xmlns="http://www.w3.org/2000/svg" viewBox="0 0 100 100">
  <defs>
    <style>
      .cls-1 {
        fill: #f0f0f0;
      }
    </style>
  </defs>
  <path class="cls-1" d="M71.63,88.31c-1.24,0-2.26-1.01-2.26-2.26v-26.57c0-1.42-.54-2.82-1.49-3.81-.93-.98-2.16-1.52-3.46-1.52s-2.53.54-3.46,1.52c-.95,1-1.49,2.39-1.49,3.81v26.57c0,1.24-1.01,2.26-2.26,2.26h-14.42c-1.24,0-2.26-1.01-2.26-2.26v-26.57c0-6.66,2.47-12.93,6.96-17.66,4.45-4.69,10.62-7.37,16.93-7.37s12.48,2.69,16.93,7.37c4.49,4.72,6.96,10.99,6.96,17.66v26.57c0,1.24-1.01,2.26-2.26,2.26h-14.42ZM64.42,49.64c2.51,0,4.97,1.07,6.74,2.93,1.76,1.86,2.73,4.31,2.73,6.92v24.31h9.91v-24.31c0-5.42-2.08-10.72-5.72-14.55-3.66-3.85-8.51-5.97-13.66-5.97s-10,2.12-13.66,5.97c-3.63,3.82-5.72,9.13-5.72,14.55v24.31h9.91v-24.31c0-2.61.97-5.07,2.73-6.92,1.77-1.86,4.22-2.93,6.74-2.93Z"/>
  <path class="cls-1" d="M13.94,88.31c-1.24,0-2.26-1.01-2.26-2.26v-45.54c0-1.24,1.01-2.26,2.26-2.26h14.42c1.24,0,2.26,1.01,2.26,2.26v45.54c0,1.24-1.01,2.26-2.26,2.26h-14.42ZM16.2,83.8h9.91v-41.03h-9.91v41.03Z"/>
  <path class="cls-1" d="M21.16,31.38c-5.22,0-9.47-4.42-9.47-9.85s4.25-9.85,9.47-9.85,9.47,4.42,9.47,9.85-4.25,9.85-9.47,9.85ZM21.16,16.2c-2.73,0-4.95,2.39-4.95,5.33s2.22,5.33,4.95,5.33,4.95-2.39,4.95-5.33-2.22-5.33-4.95-5.33Z"/>
</svg>